<svg width="226" height="19" viewBox="0 0 226 19" fill="none" xmlns="http://www.w3.org/2000/svg">
<path d="M170.883 17.6372H165.406L161.916 6.10716H161.814C161.584 8.2898 161.355 9.8556 161.126 10.8046L159.572 17.6372H155.368L159.088 1.24368H164.59L168.03 12.2755H168.132C168.361 10.5199 168.59 9.12015 168.819 8.12373L170.399 1.26741H174.603L170.883 17.6372Z" fill="#F2F2F2"/>
<path d="M185.327 17.6372H174.882L178.601 1.24368H189.046L188.257 4.80233H182.499L181.939 7.38828H187.289L186.422 10.9469H181.073L180.385 14.0311H186.142L185.327 17.6372Z" fill="#F2F2F2"/>
<path d="M194.218 13.6519L194.702 12.4895L195.823 9.87978L199.848 1.22041H203.899V10.0933C203.899 11.2558 203.797 12.442 203.593 13.6282C203.67 13.4147 204.205 12.1336 205.198 9.73743L208.841 1.19669H213.504L205.861 17.5902H200.307V10.639C200.307 9.47647 200.358 8.26653 200.46 7.00914C200.205 8.00556 199.721 9.3104 199.033 10.9236L195.976 17.5902H190.753L190.167 1.19669H194.626L194.498 9.42902C194.473 11.4456 194.371 12.8453 194.218 13.6519Z" fill="#F2F2F2"/>
<path d="M223.184 12.584C223.184 14.2447 222.598 15.5259 221.401 16.4511C220.229 17.3764 218.573 17.8271 216.459 17.8271C215.567 17.8271 214.752 17.7322 213.962 17.5424C213.172 17.3526 212.484 17.0917 211.924 16.7358V12.8213C212.586 13.2246 213.376 13.5567 214.242 13.8177C215.108 14.0787 215.898 14.221 216.611 14.221C217.197 14.221 217.656 14.1024 217.962 13.8652C218.267 13.6279 218.42 13.2958 218.42 12.8687C218.42 12.6552 218.369 12.4892 218.267 12.2994C218.165 12.1333 218.038 11.9435 217.86 11.7774C217.681 11.6114 217.197 11.208 216.433 10.6149C215.49 9.90321 214.803 9.19148 214.395 8.45602C213.962 7.72057 213.758 6.91395 213.758 6.03615C213.758 5.06345 214.013 4.18565 214.548 3.40275C215.083 2.61985 215.822 2.02674 216.764 1.57598C217.732 1.14894 218.802 0.935425 219.974 0.935425C221.885 0.935425 223.617 1.33873 225.146 2.14536L223.515 5.46676C222.14 4.80248 220.968 4.47034 220 4.47034C219.49 4.47034 219.083 4.56524 218.802 4.77876C218.522 4.99228 218.395 5.30069 218.395 5.704C218.395 6.05987 218.522 6.41574 218.802 6.72415C219.083 7.03257 219.592 7.4596 220.331 8.00526C221.274 8.64582 221.987 9.33383 222.445 10.0693C222.955 10.8522 223.184 11.6588 223.184 12.584Z" fill="#F2F2F2"/>
<path d="M19.5911 17.851H15.3111L12.8909 9.12047C12.789 8.81206 12.6616 8.1715 12.4323 7.19881C12.2285 6.22611 12.1011 5.58555 12.0502 5.22968C11.9992 5.633 11.8718 6.29728 11.6935 7.19881C11.4897 8.10033 11.3368 8.74088 11.2349 9.14419L8.84018 17.851H4.53473L0 1.26773H3.7195L5.98687 10.3304C6.39448 12.0148 6.67472 13.462 6.85305 14.672C6.904 14.2449 7.00591 13.5806 7.18424 12.6791C7.36257 11.7776 7.51543 11.0659 7.66828 10.5677L10.2668 1.26773H13.8335L16.432 10.5677C16.5339 10.9947 16.6868 11.6115 16.8651 12.4656C17.0435 13.3197 17.1708 14.0551 17.2473 14.672C17.3237 14.0789 17.4511 13.3434 17.6294 12.4656C17.8077 11.5878 17.9606 10.8761 18.1135 10.3304L20.3808 1.26773H24.1003L19.5911 17.851Z" fill="#F2F2F2"/>
<path d="M42.5686 9.5239C42.5686 12.2759 41.8298 14.3874 40.3777 15.8583C38.9255 17.3292 36.811 18.0646 34.0851 18.0646C31.3591 18.0646 29.2701 17.3292 27.7925 15.8583C26.3404 14.3874 25.6016 12.2522 25.6016 9.50017C25.6016 6.74816 26.3404 4.6367 27.7925 3.16579C29.2701 1.71861 31.3591 0.983154 34.1106 0.983154C36.862 0.983154 38.951 1.71861 40.4031 3.18952C41.8298 4.66042 42.5686 6.77188 42.5686 9.5239ZM29.5503 9.5239C29.5503 11.3744 29.9325 12.7741 30.6968 13.7231C31.461 14.6721 32.582 15.1228 34.0851 15.1228C37.0913 15.1228 38.6198 13.2486 38.6198 9.5239C38.6198 5.77546 37.1167 3.92496 34.1106 3.92496C32.6075 3.92496 31.461 4.39945 30.6968 5.34842C29.9325 6.27367 29.5503 7.6734 29.5503 9.5239Z" fill="#F2F2F2"/>
<path d="M50.0327 11.4926V17.8507H46.2622V1.24374H51.4593C53.8795 1.24374 55.6629 1.64706 56.8348 2.47741C58.0067 3.30776 58.5671 4.54142 58.5671 6.22585C58.5671 7.19854 58.2869 8.07634 57.7009 8.83552C57.115 9.5947 56.2998 10.1878 55.2552 10.6148C57.9302 14.3396 59.6881 16.7594 60.5033 17.8507H56.2998L52.0453 11.4926H50.0327ZM50.0327 8.622H51.2555C52.4529 8.622 53.3445 8.4322 53.905 8.07634C54.4655 7.69675 54.7457 7.12737 54.7457 6.32074C54.7457 5.53784 54.4655 4.96845 53.8795 4.63631C53.2936 4.30417 52.4019 4.13811 51.1791 4.13811H50.0327V8.622Z" fill="#F2F2F2"/>
<path d="M77.0637 17.8507H72.7837L68.0961 10.8521L66.4912 11.9197V17.8507H62.7207V1.24374H66.4912V8.83552L67.9688 6.89012L72.7837 1.24374H76.9873L70.7711 8.59827L77.0637 17.8507Z" fill="#F2F2F2"/>
<path d="M91.6366 6.43962C91.6366 8.21894 91.0251 9.59496 89.8278 10.5439C88.6304 11.4929 86.9235 11.9674 84.7071 11.9674H83.0766V17.8747H79.3062V1.26773H84.9873C87.1528 1.26773 88.7832 1.69477 89.9297 2.57257C91.0506 3.42664 91.6366 4.70775 91.6366 6.43962ZM83.1021 9.07302H84.3504C85.5223 9.07302 86.3885 8.8595 86.949 8.43246C87.5349 8.00542 87.8152 7.38859 87.8152 6.55824C87.8152 5.72789 87.5859 5.13479 87.1018 4.73148C86.6178 4.32817 85.8535 4.13837 84.8345 4.13837H83.1276V9.07302H83.1021Z" fill="#F2F2F2"/>
<path d="M111.179 9.5239C111.179 12.2759 110.44 14.3874 108.988 15.8583C107.536 17.3292 105.421 18.0646 102.695 18.0646C99.9695 18.0646 97.8805 17.3292 96.4029 15.8583C94.9507 14.3874 94.2119 12.2522 94.2119 9.50017C94.2119 6.74816 94.9507 4.6367 96.4029 3.16579C97.8805 1.71861 99.9695 0.983154 102.721 0.983154C105.472 0.983154 107.561 1.71861 109.013 3.18952C110.44 4.66042 111.179 6.77188 111.179 9.5239ZM98.1607 9.5239C98.1607 11.3744 98.5428 12.7741 99.3071 13.7231C100.071 14.6721 101.192 15.1228 102.695 15.1228C105.702 15.1228 107.23 13.2486 107.23 9.5239C107.23 5.77546 105.727 3.92496 102.721 3.92496C101.218 3.92496 100.071 4.39945 99.3071 5.34842C98.5428 6.27367 98.1607 7.6734 98.1607 9.5239Z" fill="#F2F2F2"/>
<path d="M114.869 17.8507V1.24374H118.64V17.8507H114.869Z" fill="#F2F2F2"/>
<path d="M138.945 17.8507H134.13L126.385 5.3006H126.284C126.436 7.50696 126.513 9.09649 126.513 10.0455V17.8507H123.125V1.24374H127.889L135.633 13.6753H135.71C135.582 11.5164 135.531 9.99801 135.531 9.09649V1.24374H138.945V17.8507Z" fill="#F2F2F2"/>
<path d="M150.307 17.851H146.537V4.18582H141.696V1.26773H155.148V4.18582H150.307V17.851Z" fill="#F2F2F2"/>
</svg>
